<svg width="87" height="58" viewBox="0 0 87 58" fill="none" xmlns="http://www.w3.org/2000/svg">
<path d="M0 40.5133C0 36.6674 1.20427 33.21 3.61281 30.2188C6.02134 27.2275 9.09028 25.2852 12.8585 24.4305C13.8685 19.8854 16.1605 16.1172 19.7733 13.2425C23.3861 10.3289 27.5428 8.89157 32.2822 8.89157C36.8661 8.89157 40.984 10.2901 44.5579 13.1259C48.1707 15.9618 50.5016 19.5746 51.5504 24.0032H52.5993C57.1833 24.0032 61.0681 25.5959 64.2924 28.8203C67.5167 32.0446 69.1483 35.9293 69.1483 40.4745C69.1483 45.0585 67.5167 48.9432 64.2924 52.1675C61.0681 55.3919 57.1833 57.0235 52.5993 57.0235H16.5878C14.3347 57.0235 12.1981 56.5961 10.178 55.7026C8.15795 54.8092 6.33212 53.7214 4.85592 52.2452C3.37972 50.769 2.2143 48.9821 1.32081 46.962C0.427321 44.9419 0 42.7276 0 40.5133ZM5.63287 40.5133C5.63287 43.4657 6.72059 46.0297 8.81835 48.1274C10.9161 50.2252 13.5189 51.3129 16.549 51.3129H52.5993C55.5906 51.3129 58.1933 50.264 60.33 48.1274C62.4666 45.9908 63.5543 43.4657 63.5543 40.5133C63.5543 37.5609 62.5054 34.997 60.33 32.8992C58.1933 30.8015 55.6294 29.7138 52.5993 29.7138H47.1995C46.8111 29.7138 46.6168 29.5195 46.6168 29.131L46.3449 27.2275C45.9564 23.5759 44.4025 20.5069 41.7221 18.0984C39.0416 15.6899 35.8561 14.4856 32.2045 14.4856C28.5528 14.4856 25.3673 15.6899 22.648 18.1372C19.9287 20.5458 18.4136 23.6147 18.064 27.2275L17.7921 28.8591C17.7921 29.2476 17.5979 29.4418 17.1705 29.4418L15.4224 29.7138C12.6254 29.9468 10.2946 31.1123 8.39103 33.1712C6.60405 35.2301 5.63287 37.6775 5.63287 40.5133ZM40.0128 6.63842C39.6243 6.98805 39.702 7.25998 40.2847 7.45422C41.9552 8.19232 43.3537 8.89157 44.4802 9.59082C44.9076 9.70737 45.2183 9.66852 45.3349 9.47428C47.7046 7.25998 50.4239 6.13341 53.5705 6.13341C56.7171 6.13341 59.3976 7.18229 61.7285 9.28005C64.0205 11.3778 65.3024 13.9806 65.5744 17.0495L65.924 19.5357H71.4403C73.9654 19.5357 76.1408 20.4292 77.9667 22.2551C79.7925 24.0809 80.686 26.2175 80.686 28.7037C80.686 31.0346 79.8702 33.0546 78.2774 34.8028C76.6847 36.5509 74.7035 37.5221 72.3338 37.794C71.9453 37.794 71.7511 37.9882 71.7511 38.4156V42.8053C71.7511 43.2326 71.9453 43.4269 72.3338 43.4269C76.2574 43.1938 79.5594 41.6399 82.2399 38.804C84.9203 35.9682 86.28 32.5885 86.28 28.7037C86.28 24.5859 84.8426 21.0896 81.9291 18.2149C79.0155 15.3014 75.5193 13.864 71.4403 13.864H70.8576C69.8476 9.9793 67.711 6.79381 64.4478 4.26873C61.2234 1.74366 57.5718 0.50054 53.5705 0.50054C48.1319 0.461692 43.5867 2.5206 40.0128 6.63842Z" fill="black"/>
</svg>
